<?xml version="1.0" ?>

<!DOCTYPE svg  PUBLIC '-//W3C//DTD SVG 1.1//EN'  'http://www.w3.org/Graphics/SVG/1.1/DTD/svg11.dtd'>

<!-- Uploaded to: SVG Repo, www.svgrepo.com, Generator: SVG Repo Mixer Tools -->
<svg fill="#000000" width="800px" height="800px" viewBox="0 0 1069 1069" style="fill-rule:evenodd;clip-rule:evenodd;stroke-linejoin:round;stroke-miterlimit:2;" version="1.1" xml:space="preserve" xmlns="http://www.w3.org/2000/svg" xmlns:serif="http://www.serif.com/" xmlns:xlink="http://www.w3.org/1999/xlink">

<rect height="1066.67" id="Printer" style="fill:none;" width="1066.67" x="1.117" y="1.665"/>

<g>

<path d="M242.784,484.738c-0,-18.253 14.82,-33.073 33.073,-33.073c18.254,0 33.074,14.82 33.074,33.073c-0,18.254 -14.82,33.074 -33.074,33.074c-18.253,-0 -33.073,-14.82 -33.073,-33.074Zm52.083,-116.406c0,17.259 13.991,31.25 31.25,31.25l416.667,-0c17.259,-0 31.25,-13.991 31.25,-31.25l-0,-150.001c-0,-34.064 -11.578,-66.629 -31.651,-90.716c-21.923,-26.307 -51.929,-40.533 -82.933,-40.533c-72.617,-0 -177.382,-0 -249.999,-0c-31.003,-0 -61.01,14.226 -82.933,40.533c-20.072,24.087 -31.651,56.652 -31.651,90.716l0,150.001Zm62.5,-31.25l0,-118.75c0.001,-18.981 5.982,-37.285 17.165,-50.705c9.335,-11.202 21.717,-18.045 34.919,-18.045l249.999,-0c13.202,-0 25.584,6.843 34.919,18.045c11.184,13.42 17.165,31.724 17.165,50.703c-0,0.002 -0,118.752 -0,118.752l-354.167,0Z" style="fill-opacity:0.5;"/>

<path d="M249.845,771.534l-6.758,23.653c-9.878,34.571 -2.955,71.775 18.697,100.479c21.652,28.705 55.522,45.582 91.477,45.582l362.379,0c35.956,0 69.826,-16.877 91.477,-45.582c21.652,-28.704 28.575,-65.908 18.697,-100.479l-6.758,-23.654c39.644,-7.041 76.489,-26.066 105.343,-54.92c37.116,-37.116 57.968,-87.457 57.968,-139.948c0,-13.838 0,-27.829 0,-41.667c0,-52.49 -20.852,-102.831 -57.968,-139.948c-37.117,-37.116 -87.458,-57.968 -139.948,-57.968l-500,-0c-52.491,-0 -102.832,20.852 -139.949,57.968c-37.116,37.117 -57.968,87.458 -57.968,139.948l-0,41.667c-0,52.491 20.852,102.832 57.968,139.948c28.855,28.855 65.701,47.88 105.343,54.921Zm89.051,-84.177l-35.714,125.001c-4.489,15.714 -1.343,32.624 8.499,45.671c9.841,13.048 25.236,20.719 41.58,20.719c0,0 362.377,0 362.381,0c16.342,-0 31.737,-7.671 41.579,-20.719c9.841,-13.047 12.988,-29.957 8.498,-45.674l-35.714,-124.998c-6.388,-22.36 -26.825,-37.775 -50.08,-37.775c-78.598,-0 -212.351,-0 -290.949,-0c-0.551,-0 -1.101,0.008 -1.651,0.026c-22.564,0.708 -42.192,15.919 -48.429,37.749Zm50.08,-100.275l290.949,-0c51.16,-0 96.121,33.914 110.175,83.105l11.652,40.779c29.536,-3.799 57.171,-17.265 78.453,-38.547c25.395,-25.395 39.662,-59.839 39.662,-95.754c0,-13.838 0,-27.829 0,-41.667c0,-35.914 -14.267,-70.358 -39.662,-95.754c-25.396,-25.395 -59.84,-39.662 -95.754,-39.662l-500,-0c-35.915,-0 -70.359,14.267 -95.754,39.662c-25.396,25.396 -39.663,59.84 -39.663,95.754l-0,41.667c-0,35.915 14.267,70.359 39.663,95.754c21.291,21.292 48.943,34.761 78.448,38.565l11.656,-40.797c14.055,-49.191 59.016,-83.105 110.175,-83.105Zm-10.102,-72.917l155.577,0c17.247,0 31.25,-14.003 31.25,-31.25c-0,-17.247 -14.003,-31.25 -31.25,-31.25l-155.577,0c-17.247,0 -31.25,14.003 -31.25,31.25c-0,17.247 14.003,31.25 31.25,31.25Z"/>

</g>

</svg>